<?xml version="1.0" encoding="iso-8859-1"?>
<!-- Generator: Adobe Illustrator 19.0.0, SVG Export Plug-In . SVG Version: 6.00 Build 0)  -->
<svg version="1.1" id="Capa_1" xmlns="http://www.w3.org/2000/svg" xmlns:xlink="http://www.w3.org/1999/xlink" x="0px" y="0px"
	 viewBox="0 0 388.274 388.274" style="enable-background:new 0 0 388.274 388.274;" xml:space="preserve">
<g>
	<g>
		<g>
			<rect x="126.642" y="329.947" style="fill:#010002;" width="134.99" height="34.47"/>
			<path style="fill:#010002;" d="M0,23.857v292.845h388.274V23.857H0z M335.685,300.265c-6.881,0-12.533-5.652-12.533-12.511
				c0-7.075,5.652-12.554,12.533-12.554c7.054,0,12.705,5.479,12.705,12.554C348.368,294.614,342.738,300.265,335.685,300.265z
				 M356.716,256.369H31.644V48.534h325.072C356.716,48.534,356.716,256.369,356.716,256.369z"/>
			<path style="fill:#010002;" d="M70.86,142.82c1.51,0,2.89-0.367,4.098-0.69l29.121,29.099c-0.345,1.23-0.69,2.61-0.69,4.098
				c0,11.562,9.405,20.945,20.945,20.945c10.332,0,18.896-7.593,20.449-17.839l101.145-46.809
				c6.903,4.444,14.129,4.573,21.204,0.173l29.703,14.431c1.381,10.332,10.181,18.227,20.557,18.227
				c11.54,0,20.945-9.405,20.945-20.945c0-11.54-9.405-20.945-20.945-20.945c-3.516,0-6.946,1.035-10.44,3.192l-29.681-14.409
				c-1.381-10.332-10.181-18.249-20.557-18.249c-10.332,0-18.918,7.593-20.449,17.839L135.141,157.79
				c-3.494-2.243-7.118-3.387-10.785-3.387c-1.51,0-2.89,0.345-4.12,0.69l-29.121-29.099c0.345-1.23,0.712-2.61,0.712-4.12
				c0-11.562-9.405-20.945-20.945-20.945s-20.967,9.383-20.967,20.924C49.915,133.437,59.32,142.82,70.86,142.82z"/>
		</g>
	</g>
	<g>
	</g>
	<g>
	</g>
	<g>
	</g>
	<g>
	</g>
	<g>
	</g>
	<g>
	</g>
	<g>
	</g>
	<g>
	</g>
	<g>
	</g>
	<g>
	</g>
	<g>
	</g>
	<g>
	</g>
	<g>
	</g>
	<g>
	</g>
	<g>
	</g>
</g>
<g>
</g>
<g>
</g>
<g>
</g>
<g>
</g>
<g>
</g>
<g>
</g>
<g>
</g>
<g>
</g>
<g>
</g>
<g>
</g>
<g>
</g>
<g>
</g>
<g>
</g>
<g>
</g>
<g>
</g>
</svg>
